<svg id="Layer_1" data-name="Layer 1" xmlns="http://www.w3.org/2000/svg" viewBox="0 0 36 36"><defs><style>.cls-1{fill:#4d4d4d;}.cls-2{fill:#fff;fill-rule:evenodd;}</style></defs><title>sm-icon</title><circle class="cls-1" cx="18" cy="18" r="17.5"/><path class="cls-2" d="M14,25.08V15.53H10.79v9.55ZM12.37,14.22a1.66,1.66,0,1,0,0-3.3,1.65,1.65,0,1,0,0,3.3Z"/><path class="cls-2" d="M15.71,25.08h3.17V19.74A2.16,2.16,0,0,1,19,19a1.74,1.74,0,0,1,1.63-1.16c1.15,0,1.61.88,1.61,2.16v5.11H25.4V19.6c0-2.93-1.57-4.3-3.65-4.3a3.16,3.16,0,0,0-2.88,1.61h0V15.53H15.71c0,.9,0,9.55,0,9.55Z"/></svg>