<svg id="Layer_1" data-name="Layer 1" xmlns="http://www.w3.org/2000/svg" viewBox="0 0 36 36"><defs><style>.cls-1{fill:#4d4d4d;}.cls-2{fill:#fff;}</style></defs><title>sm-icon</title><circle class="cls-1" cx="18" cy="18" r="17.5"/><path class="cls-2" d="M26.32,11.67l-.16.17L19,19a1.3,1.3,0,0,1-2,0L9.85,11.86l-.18-.19a1.5,1.5,0,0,1,.81-.22h15A1.64,1.64,0,0,1,26.32,11.67Z"/><path class="cls-2" d="M26.33,24.39a4.34,4.34,0,0,1-.81.16h-15a1.53,1.53,0,0,1-.87-.23l5.75-5.66,1,1a2.16,2.16,0,0,0,1,.62,2.13,2.13,0,0,0,2.08-.55c.32-.31.63-.63.95-.95l.13-.13Z"/><path class="cls-2" d="M21.32,18,27,12.39a1.46,1.46,0,0,1,.15.7q0,4.19,0,8.38c0,.48,0,1,0,1.44a5.48,5.48,0,0,1-.12.73Z"/><path class="cls-2" d="M9,23.6A3.38,3.38,0,0,1,8.87,23q0-5,0-10A3.5,3.5,0,0,1,9,12.34L14.68,18Z"/></svg>