<!--?xml version="1.0" standalone="no"?-->

<svg version="1.0" xmlns="http://www.w3.org/2000/svg" width="250.000000pt" height="300.000000pt" viewBox="0 0 250.000000 300.000000" preserveAspectRatio="xMidYMid meet">
<g transform="translate(0.000000,300.000000) scale(0.100000,-0.100000)" fill="#1F1F1F" stroke="none">
<path class="node" id="node1" d="M1502 2960 c-55 -28 -107 -65 -167 -121 l-87 -80 -161 8 c-210 10
-363 8 -441 -8 -55 -10 -65 -10 -87 5 -69 45 -355 73 -450 44 -32 -9 -45 -21
-71 -67 l-33 -56 1 -170 c1 -205 22 -346 69 -465 19 -47 37 -97 40 -112 4 -14
15 -34 26 -44 10 -9 19 -23 19 -29 0 -7 9 -24 20 -38 11 -14 20 -29 20 -34 0
-10 -90 -41 -129 -45 -14 -2 -27 -9 -29 -17 -6 -19 80 -9 123 13 17 9 37 16
46 16 16 0 129 -106 129 -121 0 -14 -71 -77 -117 -105 -24 -14 -43 -32 -43
-40 0 -28 37 -8 113 63 32 29 63 53 68 53 6 0 29 -13 52 -29 23 -16 73 -45
110 -66 l69 -37 -20 -21 c-11 -12 -32 -45 -46 -74 -21 -43 -26 -66 -26 -127 0
-74 -1 -76 -27 -82 -40 -10 -111 -63 -132 -98 -26 -43 -51 -136 -51 -188 1
-97 80 -334 143 -430 23 -36 50 -78 59 -94 10 -16 23 -36 29 -45 10 -13 4 -24
-39 -66 -51 -48 -57 -63 -52 -123 5 -64 114 -101 240 -82 89 13 226 66 241 94
14 26 24 23 90 -28 32 -25 92 -59 131 -76 61 -25 88 -30 161 -32 l89 -1 39 42
c52 56 60 97 34 165 -4 11 -2 18 5 18 18 0 177 79 260 129 200 120 435 327
482 423 15 30 34 61 43 68 8 7 15 17 15 23 0 6 18 34 41 64 22 30 45 68 51 86
6 18 16 39 23 47 29 38 58 99 80 174 13 44 29 96 36 114 20 57 -2 176 -50 270
-20 40 -70 82 -96 82 -25 0 -67 -25 -99 -58 -28 -30 -29 -34 -37 -179 -14
-240 -24 -286 -93 -413 -33 -61 -72 -106 -202 -235 -89 -88 -191 -182 -228
-210 -138 -102 -201 -144 -208 -137 -3 4 11 60 33 125 53 159 57 181 63 337
l6 135 -33 65 c-29 58 -38 68 -92 97 -38 20 -68 30 -82 27 -24 -6 -26 -1 -38
118 -4 35 -14 67 -27 83 -20 25 -20 27 -2 41 11 8 36 23 56 34 l37 20 34 -38
c19 -20 48 -53 65 -72 25 -28 33 -33 43 -22 11 10 1 24 -49 75 -34 34 -62 67
-62 72 0 6 17 22 38 37 21 14 73 66 117 116 l80 90 128 7 c93 5 127 10 127 20
0 9 -22 12 -92 8 -51 -2 -105 -5 -120 -7 -16 -1 -28 2 -28 7 0 5 20 45 45 90
25 44 53 103 62 131 9 28 20 56 24 62 19 24 58 201 65 288 7 99 8 94 -97 420
-20 63 -57 111 -102 134 -61 30 -83 28 -175 -18z m158 -10 c47 -13 81 -70 110
-185 12 -49 26 -94 30 -100 21 -27 40 -126 40 -211 0 -169 -39 -303 -145 -502
-26 -48 -52 -92 -58 -99 -7 -6 -56 -16 -109 -21 -97 -11 -208 -39 -208 -53 0
-18 24 -17 116 5 145 35 164 38 164 22 0 -16 -76 -116 -89 -116 -4 0 -27 -18
-50 -40 -52 -50 -73 -50 -101 -4 -16 28 -24 34 -32 26 -9 -9 -6 -19 10 -42 12
-16 22 -35 22 -43 0 -15 -138 -83 -230 -114 -44 -14 -85 -18 -210 -18 -139 1
-163 4 -231 26 -73 25 -279 142 -279 160 0 4 20 20 45 35 25 14 45 30 45 35 0
18 -39 9 -68 -16 -17 -14 -37 -25 -45 -25 -20 0 -109 89 -104 104 2 6 46 16
98 21 52 6 94 15 94 20 0 17 -103 17 -163 0 l-57 -17 -31 37 c-18 20 -57 93
-88 163 -69 157 -88 261 -90 502 -1 182 2 205 39 248 22 27 34 31 98 37 134
13 356 -26 377 -65 10 -19 12 -19 48 -3 31 14 73 16 277 16 132 -1 272 -5 310
-10 l70 -9 42 43 c23 24 43 47 45 52 6 16 163 125 197 137 44 16 66 17 111 4z
m702 -1291 c66 -30 108 -168 89 -289 -22 -133 -71 -251 -167 -397 -43 -66 -95
-147 -114 -178 -37 -61 -148 -171 -267 -266 -148 -117 -359 -238 -445 -254
-41 -8 -88 0 -88 14 0 22 77 136 94 139 10 2 36 17 59 33 22 16 44 29 49 29 5
0 40 27 79 60 38 33 74 60 80 60 13 0 172 151 276 262 163 175 205 271 223
518 15 207 16 214 49 249 31 33 47 37 83 20z m-1088 -221 c45 -67 62 -219 46
-422 -14 -179 -52 -404 -90 -525 -37 -118 -39 -168 -7 -181 149 -61 193 -87
208 -122 25 -60 -28 -131 -107 -143 -91 -13 -242 42 -325 118 -34 32 -36 38
-43 118 -6 68 -8 739 -2 854 0 17 -3 32 -9 35 -20 10 -37 -729 -20 -881 8 -77
-6 -108 -55 -129 -17 -7 -30 -16 -30 -20 0 -5 -39 -21 -87 -36 -116 -38 -213
-40 -261 -6 -46 33 -44 70 9 127 33 35 56 49 120 70 43 15 81 31 85 36 3 5 -4
46 -14 92 -58 242 -72 307 -72 339 0 19 -9 63 -21 99 -49 149 -74 367 -55 476
4 25 21 57 42 81 l34 40 44 -13 c83 -25 216 -35 323 -25 115 11 240 37 249 51
7 12 6 13 38 -33z m172 -234 c58 -29 77 -60 94 -153 19 -101 -22 -378 -65
-447 -7 -11 -20 -44 -29 -72 -17 -59 -38 -100 -78 -153 -16 -20 -28 -44 -28
-53 0 -9 -7 -16 -15 -16 -20 0 -95 31 -95 39 0 3 7 31 15 61 57 206 90 409
102 635 5 89 13 166 17 173 11 17 25 15 82 -14z m-934 -112 c3 -32 13 -83 21
-113 38 -132 56 -209 68 -284 6 -44 25 -137 40 -206 16 -70 29 -129 29 -133 0
-8 -69 -36 -91 -36 -11 0 -19 4 -19 9 0 12 -57 98 -71 106 -16 10 -79 114 -79
131 0 8 -16 55 -34 104 -44 113 -61 241 -40 309 17 57 53 107 102 143 58 42
68 38 74 -30z"></path>
<path class="node" id="node2" d="M1502 2763 c-45 -22 -97 -72 -86 -82 5 -4 29 -13 52 -20 45 -13 107
-48 201 -113 29 -21 57 -35 61 -33 21 13 14 47 -21 106 -22 35 -39 69 -39 74
0 6 -11 27 -25 48 -23 33 -30 37 -68 37 -23 0 -57 -8 -75 -17z m112 -46 c25
-33 56 -97 56 -117 0 -6 -36 14 -81 45 -44 30 -84 55 -90 55 -35 0 38 46 78
49 7 1 23 -14 37 -32z"></path>
<path class="node" id="node3" d="M224 2653 c-39 -8 -63 -45 -72 -113 -11 -76 -5 -140 13 -140 6 0 34
23 61 50 27 28 78 66 114 85 70 38 100 58 100 69 0 4 -24 18 -52 31 -50 23
-106 30 -164 18z m131 -42 c18 -7 14 -12 -29 -37 -27 -16 -69 -44 -93 -61 -56
-43 -67 -42 -58 3 12 65 23 83 57 93 41 11 96 12 123 2z"></path>
<path class="node" id="node4" d="M1285 2465 c-33 -14 -62 -25 -64 -25 -2 0 4 -9 13 -19 17 -19 18 -19
53 5 36 24 93 33 93 14 0 -5 9 -10 20 -10 26 0 25 14 -2 40 -28 26 -40 25
-113 -5z"></path>
<path class="node" id="node5" d="M382 2434 c-38 -26 -27 -36 33 -29 45 6 59 4 75 -10 19 -18 51 -17
57 0 5 15 -81 55 -115 55 -15 0 -38 -7 -50 -16z"></path>
<path class="node" id="node6" d="M1536 2311 c-27 -28 -29 -29 -109 -24 -96 6 -130 -4 -156 -48 -48
-78 -32 -157 43 -211 39 -28 45 -29 106 -23 83 9 118 36 145 113 20 56 21 57
65 62 34 4 46 10 48 24 4 17 -1 18 -51 12 -51 -7 -55 -6 -72 20 l-18 28 36 31
c20 18 34 35 30 38 -14 15 -41 6 -67 -22z m-35 -89 c49 -46 58 -98 21 -134
l-22 -22 -34 37 c-42 46 -80 49 -125 11 -17 -14 -38 -23 -46 -20 -22 8 -19 84
5 123 16 26 26 32 62 36 97 8 97 8 139 -31z m-61 -137 c7 -8 9 -22 6 -31 -5
-13 -16 -16 -52 -11 -56 6 -62 12 -39 37 21 24 67 26 85 5z"></path>
<path class="node" id="node7" d="M296 2281 c-4 -6 -1 -23 8 -36 31 -47 14 -65 -62 -65 -46 0 -37 -24
10 -28 34 -3 37 -7 57 -61 31 -87 90 -120 185 -106 38 6 52 15 82 52 45 54 56
118 30 159 -28 42 -79 57 -175 51 -80 -5 -85 -4 -106 21 -15 18 -24 22 -29 13z
m252 -81 c46 -28 53 -55 28 -100 l-20 -38 -27 29 c-38 40 -73 38 -116 -7 -27
-30 -36 -34 -48 -24 -25 21 -39 83 -25 109 26 50 147 68 208 31z m-49 -134 c9
-11 10 -20 1 -35 -13 -25 -48 -27 -76 -6 -19 15 -19 15 5 35 27 24 54 26 70 6z"></path>
<path class="node" id="node8" d="M807 2003 c-74 -12 -59 -133 27 -213 32 -30 38 -41 33 -62 -9 -35
-61 -88 -86 -88 -25 0 -61 37 -61 62 0 19 -26 36 -37 25 -10 -11 6 -55 32 -85
33 -39 75 -49 113 -26 28 16 30 16 52 -6 20 -20 29 -22 83 -16 67 7 87 20 112
73 13 28 15 41 6 59 -15 34 -31 30 -31 -9 0 -23 -8 -41 -27 -59 -41 -39 -73
-44 -107 -17 -47 37 -33 74 63 168 87 84 97 109 63 151 -33 41 -129 59 -235
43z m155 -35 c64 -31 65 -61 3 -123 -58 -59 -81 -59 -134 1 -57 65 -56 98 2
124 55 25 72 25 129 -2z"></path>
</g>
<g transform="translate(0.000000,300.000000) scale(0.100000,-0.100000)" fill="#A1A1A1" stroke="none">


<path class="node" id="node11" d="M1549 2946 c-34 -12 -191 -121 -197 -137 -2 -5 -22 -28 -45 -52 l-42
-43 -70 9 c-38 5 -178 9 -310 10 -204 0 -246 -2 -277 -16 -36 -16 -38 -16 -48
3 -21 39 -243 78 -377 65 -64 -6 -76 -10 -98 -37 -37 -43 -40 -66 -39 -248 2
-241 21 -345 90 -502 31 -70 70 -143 88 -163 l31 -37 57 17 c60 17 163 17 163
0 0 -5 -42 -14 -94 -20 -52 -5 -96 -15 -98 -21 -5 -15 84 -104 104 -104 8 0
28 11 45 25 29 25 68 34 68 16 0 -5 -20 -21 -45 -35 -25 -15 -45 -31 -45 -35
0 -18 206 -135 279 -160 68 -22 92 -25 231 -26 125 0 166 4 210 18 92 31 230
99 230 114 0 8 -10 27 -22 43 -16 23 -19 33 -10 42 8 8 16 2 32 -26 28 -46 49
-46 101 4 23 22 46 40 50 40 13 0 89 100 89 116 0 16 -19 13 -164 -22 -92 -22
-116 -23 -116 -5 0 14 111 42 208 53 53 5 102 15 109 21 6 7 32 51 58 99 106
199 145 333 145 502 0 85 -19 184 -40 211 -4 6 -18 51 -30 100 -29 115 -63
172 -110 185 -45 13 -67 12 -111 -4z m96 -203 c14 -21 25 -42 25 -48 0 -5 17
-39 39 -74 35 -59 42 -93 21 -106 -4 -2 -32 12 -61 33 -94 65 -156 100 -201
113 -61 18 -65 24 -30 57 44 41 90 62 139 62 38 0 45 -4 68 -37z m-1257 -108
c28 -13 52 -27 52 -31 0 -11 -30 -31 -100 -69 -36 -19 -87 -57 -114 -85 -27
-27 -55 -50 -61 -50 -33 0 -19 189 17 227 37 40 130 44 206 8z m1010 -165 c27
-26 28 -40 2 -40 -11 0 -20 5 -20 10 0 19 -57 10 -93 -14 -35 -24 -36 -24 -53
-5 -9 10 -15 19 -13 19 2 0 31 11 64 25 73 30 85 31 113 5z m-893 -42 c25 -12
44 -27 42 -33 -6 -17 -38 -18 -57 0 -16 14 -30 16 -75 10 -60 -7 -71 3 -33 29
31 22 69 20 123 -6z m1098 -95 c4 -3 -10 -20 -30 -38 l-36 -31 18 -28 c17 -26
21 -27 72 -20 50 6 55 5 51 -12 -2 -14 -14 -20 -48 -24 -44 -5 -45 -6 -65 -62
-27 -77 -62 -104 -145 -113 -61 -6 -67 -5 -106 23 -75 54 -91 133 -43 211 26
44 60 54 156 48 80 -5 82 -4 109 24 26 28 53 37 67 22z m-1172 -86 c96 6 147
-9 175 -51 26 -41 15 -105 -30 -159 -30 -37 -44 -46 -82 -52 -95 -14 -154 19
-185 106 -20 54 -23 58 -57 61 -47 4 -56 28 -10 28 76 0 93 18 62 65 -23 36
-6 55 21 23 21 -25 26 -26 106 -21z m554 -251 c21 -8 47 -24 57 -36 34 -42 24
-67 -63 -151 -96 -94 -110 -131 -63 -168 34 -27 66 -22 107 17 19 18 27 36 27
59 0 39 16 43 31 9 9 -18 7 -31 -6 -59 -25 -53 -45 -66 -112 -73 -54 -6 -63
-4 -83 16 -22 22 -24 22 -52 6 -38 -23 -80 -13 -113 26 -26 30 -42 74 -32 85
11 11 37 -6 37 -25 0 -25 36 -62 61 -62 25 0 77 53 86 88 5 21 -1 32 -33 62
-86 80 -101 201 -27 213 61 9 140 6 178 -7z"></path>
<path class="node" id="node12" d="M1528 2733 c-35 -14 -51 -33 -29 -33 6 0 46 -25 90 -55 45 -31 81
-51 81 -45 0 38 -71 151 -93 149 -7 -1 -29 -8 -49 -16z"></path>
<path class="node" id="node13" d="M232 2609 c-34 -10 -45 -28 -57 -93 -9 -45 2 -46 58 -3 24 17 66 45
93 61 43 25 47 30 29 37 -27 10 -82 9 -123 -2z"></path>
<path class="node" id="node14" d="M1362 2253 c-36 -4 -46 -10 -62 -36 -24 -39 -27 -115 -5 -123 8 -3
29 6 46 20 45 38 83 35 125 -11 l34 -37 22 22 c37 36 28 88 -21 134 -42 39
-42 39 -139 31z"></path>
<path class="node" id="node15" d="M1355 2080 c-23 -25 -17 -31 39 -37 36 -5 47 -2 52 11 16 42 -57 63
-91 26z"></path>
<path class="node" id="node16" d="M383 2205 c-44 -19 -58 -48 -44 -95 18 -62 35 -68 74 -26 43 45 78
47 116 7 l27 -29 20 38 c25 45 18 72 -28 100 -39 24 -117 26 -165 5z"></path>
<path class="node" id="node17" d="M429 2060 c-24 -20 -24 -20 -5 -35 28 -21 63 -19 76 6 24 44 -29 65
-71 29z"></path>
<path class="node" id="node18" d="M833 1970 c-58 -26 -59 -59 -2 -124 53 -60 76 -60 134 -1 62 62 61
92 -3 123 -57 27 -74 27 -129 2z"></path>

<path class="node" id="node20" d="M2279 1639 c-33 -35 -34 -42 -49 -249 -18 -247 -60 -343 -223 -518
-104 -111 -263 -262 -276 -262 -6 0 -42 -27 -80 -60 -39 -33 -74 -60 -79 -60
-5 0 -27 -13 -49 -29 -23 -16 -49 -31 -59 -33 -17 -3 -94 -117 -94 -139 0 -14
47 -22 88 -14 86 16 297 137 445 254 119 95 230 205 267 266 19 31 71 112 114
178 96 146 145 264 167 397 24 148 -40 300 -127 300 -9 0 -29 -14 -45 -31z"></path>
<path class="node" id="node21" d="M1236 1471 c-9 -14 -134 -40 -249 -51 -107 -10 -240 0 -323 25 l-44
13 -34 -40 c-21 -24 -38 -56 -42 -81 -19 -109 6 -327 55 -476 12 -36 21 -80
21 -99 0 -32 14 -97 72 -339 10 -46 17 -87 14 -92 -4 -5 -42 -21 -85 -36 -64
-21 -87 -35 -120 -70 -53 -57 -55 -94 -9 -127 48 -34 145 -32 261 6 48 15 87
31 87 36 0 4 13 13 30 20 49 21 63 52 55 129 -17 152 0 891 20 881 6 -3 9 -18
9 -35 -6 -115 -4 -786 2 -854 7 -80 9 -86 43 -118 83 -76 234 -131 325 -118
79 12 132 83 107 143 -15 35 -59 61 -208 122 -32 13 -30 63 7 181 38 121 76
346 90 525 16 203 -1 355 -46 422 -32 46 -31 45 -38 33z"></path>

<path class="node" id="node23" d="M1364 1218 c-4 -7 -12 -84 -17 -173 -12 -226 -45 -429 -102 -635 -8
-30 -15 -58 -15 -61 0 -8 75 -39 95 -39 8 0 15 7 15 16 0 9 12 33 28 53 40 53
61 94 78 153 9 28 22 61 29 72 43 69 84 346 65 447 -17 93 -36 124 -94 153
-57 29 -71 31 -82 14z"></path>
<path class="node" id="node24" d="M438 1122 c-49 -36 -85 -86 -102 -143 -21 -68 -4 -196 40 -309 18
-49 34 -96 34 -104 0 -17 63 -121 79 -131 14 -8 71 -94 71 -106 0 -5 8 -9 19
-9 22 0 91 28 91 36 0 4 -13 63 -29 133 -15 69 -34 162 -40 206 -12 75 -30
152 -68 284 -8 30 -18 81 -21 113 -6 68 -16 72 -74 30z"></path>
<path class="node" id="node25" d="M1323 3 c9 -2 25 -2 35 0 9 3 1 5 -18 5 -19 0 -27 -2 -17 -5z"></path>
</g>
</svg>